# xmcd
#
# Track frame offsets:
#	150
#	12082
#	27057
#	41152
#	57560
#	72350
#	88285
#	108335
#	125542
#	143462
#	156415
#	175355
#	191777
#	209582
#	224722
#	239632
#
# Disc length: 3466 seconds
#
# Revision: 2
# Processed by: cddbd v1.5.2PL0 Copyright (c) Steve Scherf et al.
# Submitted via: EZCDAudioConverter 5.1.0.1
#
DISCID=fa0d8810
DTITLE=SÉRGIO REIS - O MELHOR DE SÉRGIO REIS [CD M 10022) RCA
DYEAR=1989
DGENRE=Sertanejo
TTITLE0=PROCISSÃO (BY GILMAR SINISTRO)
TTITLE1=CALIX BENTO (BY GILMAR SINISTRO)
TTITLE2=REI DO GADO (BY GILMAR SINISTRO)
TTITLE3=TOCADOR DE BOI (BY GILMAR SINISTRO)
TTITLE4=TREM DO PANTANAL (BY GILMAR SINISTRO)
TTITLE5=BOIADEIRO ERRANTE (BY GILMAR SINISTRO)
TTITLE6=CHICO MULATO (BY GILMAR SINISTRO)
TTITLE7=FILHO ADOTIVO (BY GILMAR SINISTRO)
TTITLE8=BERRANTE DE OURO (BY GILMAR SINISTRO)
TTITLE9=SAUDADE DE MINHA TERRA (BY GILMAR SINISTRO)
TTITLE10=MAGOA DE BOIADEIRO (BY GILMAR SINISTRO)
TTITLE11=CHICO MINEIRO (BY GILMAR SINISTRO)
TTITLE12=SERAFIM E SEUS FILHOS (BY GILMAR SINISTRO)
TTITLE13=O MENINO DA PORTEIRA (BY GILMAR SINISTRO)
TTITLE14=PANELA VELHA (BY GILMAR SINISTRO)
TTITLE15=PINGA NI MIM (BY GILMAR SINISTRO)
EXTD=
EXTT0=
EXTT1=
EXTT2=
EXTT3=
EXTT4=
EXTT5=
EXTT6=
EXTT7=
EXTT8=
EXTT9=
EXTT10=
EXTT11=
EXTT12=
EXTT13=
EXTT14=
EXTT15=
PLAYORDER=
